<?xml version="1.0" encoding="utf-8"?>
<!-- Generator: Adobe Illustrator 27.7.0, SVG Export Plug-In . SVG Version: 6.00 Build 0)  -->
<svg version="1.1" id="Layer_1" xmlns="http://www.w3.org/2000/svg" xmlns:xlink="http://www.w3.org/1999/xlink" x="0px" y="0px"
	 viewBox="0 0 580.2 244.8" style="enable-background:new 0 0 580.2 244.8;" xml:space="preserve">
<style type="text/css">
	.st0{fill:#004677;}
	.st1{fill:#7C878E;}
</style>
<g>
	<g>
		<g>
			<path class="st0" d="M100.1,164.6c0.6,1,2.1,1.9,4.4,2.7c2.3,0.8,4.6,1.3,6.9,1.3c3.8,0,6.6-0.8,8.4-2.3s2.8-3.6,2.8-6.2
				c0-2.6-1.2-4.8-3.5-6.4c-2.3-1.6-6.2-3.6-11.7-6.1l-3.4-1.4c-5.5-2.3-9.6-5.1-12.3-8.4s-4.1-7.5-4.1-12.7c0-3.6,1.1-6.8,3.2-9.6
				s5.2-5.1,9.1-6.6s8.4-2.4,13.5-2.4c3.8,0,7,0.2,9.6,0.7c2.7,0.5,5.5,1.1,8.4,1.9c1.6,0.6,2.8,0.9,3.6,1v15.7h-9.5l-2.8-9.1
				c-0.5-0.8-1.6-1.5-3.2-2.2c-1.7-0.6-3.6-1-5.8-1c-3.3,0-5.9,0.7-7.8,2.1s-2.9,3.3-2.9,5.8c0,2.2,0.7,4.1,2,5.6s2.8,2.6,4.4,3.4
				c1.6,0.8,4.6,2.1,8.9,3.9c4.3,1.8,7.9,3.6,10.7,5.3c2.8,1.7,5.2,3.9,7.1,6.5c1.9,2.7,2.8,5.9,2.8,9.8c0,5.9-2.3,10.7-6.9,14.4
				c-4.6,3.7-11.3,5.5-20,5.5c-4.1,0-7.7-0.4-11-1.1c-3.2-0.7-7-1.7-11.2-2.9l-2.6-0.8v-15.8h9.9L100.1,164.6z"/>
			<path class="st0" d="M197.2,174c-1.2-1.1-1.8-2.8-1.8-5v-3.2c-2.1,2.6-5.2,5-9.1,7c-3.9,2-7.8,3.1-11.7,3.1
				c-7.7,0-13.1-2-16.4-5.9s-4.9-10.5-4.9-19.6v-33.8l-6-1.7V108l20.4-1.6h0.1l2.4,1.7v42.2c0,5.8,0.7,9.9,2.1,12.2s4.1,3.5,8,3.5
				c4.7,0,9.1-1.8,13.2-5.5v-44l-8-1.8V108l21.7-1.6h0.2l2.9,1.7V167h6.7l-0.1,6.8c-0.3,0.1-1.8,0.4-4.4,1c-2.6,0.6-5.8,0.8-9.5,0.8
				C200.3,175.7,198.4,175.1,197.2,174z"/>
			<path class="st0" d="M225.5,167.3l6.7-1.1v-47l-7.7-2.2v-8.3l19.9-2.5l1.4,1l1.8,3.9v5c2.6-2.6,6.4-4.8,11.3-6.8
				c4.9-1.9,9.2-2.9,12.8-2.9c4.3,0,7.8,0.7,10.5,2.2c2.7,1.4,4.7,3.7,6,6.7c2.6-2.4,6.1-4.5,10.4-6.2s8.5-2.6,12.7-2.6
				c7.1,0,12.1,2.1,15.1,6.2s4.4,10.9,4.4,20.4v33.1l7.8,1.1v7.2h-31v-7.2l6.2-1.1v-32.6c0-6.2-0.7-10.6-2.2-13.1
				c-1.5-2.5-4.3-3.8-8.4-3.8c-2.2,0-4.5,0.5-6.9,1.5c-2.4,1-4.5,2.2-6.3,3.7c0.5,3,0.8,6.8,0.8,11.4v32.9l7.4,1.1v7.2h-31.3v-7.2
				l6.6-1.1v-32.9c0-4.1-0.3-7.4-0.8-9.8s-1.5-4.1-2.9-5.2c-1.4-1.1-3.5-1.6-6.2-1.6c-2.5,0-5.1,0.6-7.6,1.7
				c-2.5,1.2-4.8,2.5-6.8,4.1v43.6l7.1,1.1v7.2h-30.9L225.5,167.3L225.5,167.3z"/>
			<path class="st0" d="M346.8,167.3l6.7-1.1v-47l-7.7-2.2v-8.3l19.9-2.5l1.4,1l1.8,3.9v5c2.6-2.6,6.4-4.8,11.3-6.8
				c4.9-1.9,9.2-2.9,12.8-2.9c4.3,0,7.8,0.7,10.5,2.2c2.7,1.4,4.7,3.7,6,6.7c2.6-2.4,6.1-4.5,10.4-6.2c4.3-1.8,8.5-2.6,12.7-2.6
				c7.1,0,12.1,2.1,15.1,6.2s4.4,10.9,4.4,20.4v33.1l7.8,1.1v7.2h-31v-7.2l6.2-1.1v-32.6c0-6.2-0.7-10.6-2.2-13.1
				c-1.5-2.5-4.3-3.8-8.4-3.8c-2.2,0-4.5,0.5-6.9,1.5c-2.4,1-4.5,2.2-6.3,3.7c0.5,3,0.8,6.8,0.8,11.4v32.9l7.4,1.1v7.2h-31.3v-7.2
				l6.6-1.1v-32.9c0-4.1-0.3-7.4-0.8-9.8s-1.5-4.1-2.9-5.2s-3.5-1.6-6.2-1.6c-2.5,0-5.1,0.6-7.6,1.7c-2.5,1.2-4.8,2.5-6.8,4.1v43.6
				l7.1,1.1v7.2h-30.9L346.8,167.3L346.8,167.3z"/>
			<path class="st0" d="M476.1,119.2l-8.5-2.3v-8l21.9-2.6h0.2l3.4,2.4v57.6l8,1v7.2h-33.4v-7.2l8.4-1.1L476.1,119.2L476.1,119.2z
				 M475.6,94.4c-1.7-1.7-2.5-3.8-2.5-6.5c0-3,1-5.6,2.9-7.6c1.9-2,4.5-3,7.7-3s5.6,0.9,7.3,2.6c1.7,1.7,2.5,3.8,2.5,6.4
				c0,3.2-1,5.8-2.9,7.7c-1.9,1.9-4.6,2.9-8,2.9h-0.1C479.6,97,477.3,96.1,475.6,94.4z"/>
			<path class="st0" d="M518.7,172.1c-2.4-2.3-3.6-6-3.6-11v-44h-7.8v-6.2c0.6-0.2,1.8-0.7,3.5-1.3c1.7-0.6,3-1.1,3.8-1.5
				c1.4-1,2.5-2.8,3.5-5.4c0.7-1.7,2-5.8,4-12.5h9.6l0.5,17.6h18.3v9.2h-18.2v33.7c0,4.5,0.1,7.6,0.4,9.5c0.2,1.8,0.8,3,1.6,3.5
				c0.8,0.5,2.2,0.8,4.2,0.8s4.1-0.2,6.2-0.6c2.2-0.4,4-1,5.4-1.6l2.3,6.7c-2.2,1.7-5.5,3.2-9.8,4.6s-8.5,2-12.6,2
				C524.8,175.6,521.1,174.4,518.7,172.1z"/>
			<path class="st0" d="M556,79.3c1.1-1.9,2.6-3.3,4.4-4.4c1.9-1.1,3.9-1.6,6.1-1.6c2.2,0,4.2,0.5,6.1,1.6c1.8,1.1,3.3,2.6,4.4,4.4
				c1.1,1.9,1.6,3.9,1.6,6.2s-0.5,4.3-1.6,6.2s-2.5,3.3-4.4,4.4c-1.9,1.1-3.9,1.6-6.1,1.6c-2.2,0-4.3-0.5-6.1-1.6
				c-1.9-1.1-3.3-2.6-4.4-4.4c-1.1-1.9-1.6-3.9-1.6-6.2S554.8,81.1,556,79.3z M557.6,90.7c0.9,1.6,2.2,2.9,3.7,3.9s3.3,1.4,5.2,1.4
				c1.9,0,3.6-0.5,5.2-1.4c1.6-1,2.8-2.2,3.7-3.9s1.3-3.4,1.3-5.3c0-1.9-0.5-3.7-1.3-5.3c-0.9-1.6-2.1-2.9-3.7-3.8
				c-1.6-0.9-3.3-1.4-5.2-1.4c-1.9,0-3.7,0.5-5.2,1.4c-1.6,1-2.8,2.2-3.7,3.9s-1.3,3.4-1.3,5.3C556.2,87.3,556.7,89.1,557.6,90.7z
				 M562,80.4l-1.2-0.3v-1.4h2.5c0.5,0,1.1,0,1.9,0c0.6,0,1.1-0.1,1.5-0.1c1.8,0,3.1,0.3,3.9,1s1.3,1.5,1.3,2.6c0,1-0.2,1.9-0.7,2.6
				S570,86,569,86.2c0.7,0.3,1.2,0.6,1.5,1.1c0.3,0.4,0.6,1,0.9,1.7c0.2,0.6,0.4,1,0.6,1.3s0.5,0.4,0.9,0.4v1.4h-2.6
				c-0.5,0-0.8-0.2-1-0.6c-0.2-0.4-0.4-1-0.7-1.8c-0.2-0.8-0.5-1.5-0.7-2c-0.3-0.5-0.7-0.8-1.2-1h-1.8v3.8l1.4,0.3v1.3h-5.4v-1.3
				l1.2-0.3L562,80.4L562,80.4z M566.8,85.2c0.6,0,1.1-0.2,1.5-0.7s0.6-1.1,0.6-1.8c0-0.9-0.2-1.5-0.6-1.9c-0.4-0.4-1-0.6-1.9-0.6
				c-0.7,0-1.2,0.1-1.6,0.1v4.7C565.1,85.2,565.8,85.2,566.8,85.2z"/>
		</g>
		<path class="st1" d="M125.9,103.3l6.9,1.6l-7.7-29.1c-0.3-1.2-1.4-2.1-2.6-2.3c-1.3-0.1-2.5,0.6-3.1,1.7l-3.9,7.9l-12.3-49.9
			c-0.3-1.4-1.5-2.3-2.9-2.3h0c-1.4,0-2.6,0.9-2.9,2.2L80.6,95.2l-4.5-7.1c-0.6-1-1.8-1.5-3-1.4c-1.2,0.2-2.2,1-2.5,2.2l-12.9,45.8
			l-5.7-8.2c-0.7-1-1.8-1.5-3-1.3c-1.2,0.2-2.1,1-2.4,2.2l-11.4,38.9C17.4,148.9,7.3,125,7.3,100.1C7.3,48.8,49,7.2,100.2,7.2
			s92.9,41.7,92.9,92.9c0,1.6,0,1.8-0.1,3.2l6.2-0.4c0-0.7-0.1-1.2-0.1-2.8c0-54.6-44.4-99-99-99s-99,44.4-99,99
			c0,28.3,12.2,55.3,33.4,74.1c0.8,0.7,1.9,0.9,2.9,0.6c1-0.3,1.8-1.1,2.1-2.1l11-37.5l5.8,8.3c0.7,1,1.8,1.4,3,1.3
			c1.2-0.2,2.1-1,2.4-2.2l12.8-45.5l4.6,7.2c0.6,1,1.8,1.6,3,1.4s2.2-1,2.5-2.2l15.5-57.4l11.5,46.6c0.3,1.2,1.4,2.2,2.6,2.3
			c1.3,0.2,2.5-0.5,3.1-1.7l3.9-8L125.9,103.3z"/>
	</g>
	<g>
		<path class="st0" d="M5,188.9h2.4l-1.8,10.4l10.4-10.4H19L9.7,198l6.8,9.9h-2.6l-5.7-8.4l-3.2,3.1L4,207.9H1.6L5,188.9z"/>
		<path class="st0" d="M23.2,195.6c1.2-0.8,3.7-2.2,6-2.2c2.9,0,3.9,1.9,3.5,4.6l-1.8,10h-2.2l1.7-9.8c0.3-1.7,0-3-1.9-3
			c-1.9,0-4.5,1.5-5.6,2.3l-1.8,10.4h-2.3l2.5-14.3h2.2L23.2,195.6z"/>
		<path class="st0" d="M49.2,199.5c0,4.8-2.9,8.7-7.3,8.7c-4.1,0-6.4-2.3-6.4-6.2c0-4.8,2.9-8.7,7.4-8.7
			C46.9,193.4,49.2,195.7,49.2,199.5z M47,199.5c0-2.5-1.2-4.4-4.1-4.4c-3.2,0-5.1,3.4-5.1,6.9c0,2.5,1.2,4.4,4.1,4.4
			C45.1,206.4,47,203,47,199.5z"/>
		<path class="st0" d="M61.6,196.4l-5.5,11.5h-2.2l-1.9-14.3h2.3l1.2,11.9l5.6-11.9H63l1.2,11.9l5.3-11.9h2.5l-6.9,14.2h-2.2
			L61.6,196.4z"/>
		<path class="st0" d="M80,193.6h2v-3.6l2.2-0.5v4.1h3.9v1.7h-3.9v9.3c0,1.2,0.6,1.5,1.4,1.5c0.8,0,2.2-0.5,2.7-0.7l0.8,1.7
			c-0.7,0.3-2.4,1-3.9,1c-1.8,0-3.2-0.8-3.2-3.6v-9.2h-2L80,193.6L80,193.6L80,193.6z"/>
		<path class="st0" d="M94,195.6c1-0.8,3.4-2.3,5.9-2.3c3.1,0,4.1,2,4.1,4.4v10.1h-2.2v-9.8c0-1.7-0.5-3-2.5-3c-2,0-4.3,1.5-5.2,2.3
			v10.4h-2.2v-19.8H94L94,195.6L94,195.6L94,195.6z"/>
		<path class="st0" d="M109.7,201.4c0.2,3.1,1.8,5.1,4.1,5.1c1.9,0,4-1.1,5.3-1.9l1,1.5c-1.3,0.8-3.7,2.2-6.5,2.2
			c-3.4,0-6.3-2.5-6.3-7.4c0-4.8,2.8-7.4,6.6-7.4c4,0,6.1,2.6,6.1,6.2c0,1.1-0.2,1.9-0.2,1.9L109.7,201.4L109.7,201.4z M109.8,199.9
			h8.1c0.1-3.3-1.4-4.8-3.8-4.8C111.6,195.1,110,196.9,109.8,199.9z"/>
		<path class="st0" d="M133.6,195.5c1.1-1,2.8-2.1,5-2.1c3,0,5.4,2.2,5.4,7.4c0,5.2-2.4,7.4-5.4,7.4c-2.2,0-3.9-1.1-5-2.1v7.4h-2.2
			v-19.8h2.2V195.5z M133.6,197.5v6.5c1.1,1.2,2.8,2.3,4.6,2.3c2.4,0,3.6-2.1,3.6-5.5c0-3.5-1.2-5.6-3.6-5.6
			C136.4,195.2,134.7,196.3,133.6,197.5z"/>
		<path class="st0" d="M149.3,201.4c0.2,3.1,1.8,5.1,4.1,5.1c1.9,0,4-1.1,5.3-1.9l1,1.5c-1.3,0.8-3.7,2.2-6.5,2.2
			c-3.4,0-6.3-2.5-6.3-7.4c0-4.8,2.8-7.4,6.6-7.4c4,0,6.1,2.6,6.1,6.2c0,1.1-0.2,1.9-0.2,1.9L149.3,201.4L149.3,201.4z M149.3,199.9
			h8.1c0.1-3.3-1.4-4.8-3.8-4.8C151.1,195.1,149.6,196.9,149.3,199.9z"/>
		<path class="st0" d="M169.4,208.2c-4.4,0-6.7-2.8-6.7-7.4s2.4-7.4,6.7-7.4c4.3,0,6.7,2.8,6.7,7.4S173.7,208.2,169.4,208.2z
			 M169.4,195.2c-3.1,0-4.4,2.2-4.4,5.6s1.3,5.6,4.4,5.6c3.1,0,4.4-2.2,4.4-5.6C173.7,197.4,172.4,195.2,169.4,195.2z"/>
		<path class="st0" d="M182,195.5c1.1-1,2.8-2.1,5-2.1c3,0,5.4,2.2,5.4,7.4c0,5.2-2.4,7.4-5.4,7.4c-2.2,0-3.9-1.1-5-2.1v7.4h-2.2
			v-19.8h2.2V195.5z M182,197.5v6.5c1.1,1.2,2.8,2.3,4.6,2.3c2.4,0,3.6-2.1,3.6-5.5c0-3.5-1.2-5.6-3.6-5.6
			C184.7,195.2,183.1,196.3,182,197.5z"/>
		<path class="st0" d="M196.2,207.9v-19.8h2.2v19.8L196.2,207.9L196.2,207.9z"/>
		<path class="st0" d="M204.6,201.4c0.2,3.1,1.8,5.1,4.1,5.1c1.9,0,4-1.1,5.3-1.9l1,1.5c-1.3,0.8-3.7,2.2-6.5,2.2
			c-3.4,0-6.3-2.5-6.3-7.4c0-4.8,2.8-7.4,6.6-7.4c4,0,6.1,2.6,6.1,6.2c0,1.1-0.2,1.9-0.2,1.9L204.6,201.4L204.6,201.4z M204.6,199.9
			h8.1c0.1-3.3-1.4-4.8-3.8-4.8C206.4,195.1,204.8,196.9,204.6,199.9z"/>
		<path class="st0" d="M234.5,196.4l-3.5,11.5h-2.2l-4.4-14.3h2.4l3.3,11.9l3.5-11.9h2.1l3.5,11.9l3.3-11.9h2.4l-4.5,14.3H238
			L234.5,196.4z"/>
		<path class="st0" d="M250.1,195.6c1-0.8,3.4-2.3,5.9-2.3c3.1,0,4.1,2,4.1,4.4v10.1h-2.2v-9.8c0-1.7-0.5-3-2.5-3
			c-2,0-4.3,1.5-5.2,2.3v10.4h-2.2v-19.8h2.2L250.1,195.6L250.1,195.6z"/>
		<path class="st0" d="M270.3,208.2c-4.4,0-6.7-2.8-6.7-7.4s2.4-7.4,6.7-7.4c4.3,0,6.7,2.8,6.7,7.4S274.6,208.2,270.3,208.2z
			 M270.3,195.2c-3.1,0-4.4,2.2-4.4,5.6s1.3,5.6,4.4,5.6c3.1,0,4.4-2.2,4.4-5.6C274.7,197.4,273.4,195.2,270.3,195.2z"/>
		<path class="st0" d="M294.2,199.4l5.7,8.5h-2.4l-4.6-6.9l-2.4,2.9v4h-2.2v-19.8h2.2v13.1l6-7.5h2.6L294.2,199.4z"/>
		<path class="st0" d="M304.8,195.6c1-0.8,3.5-2.3,5.9-2.3c3.1,0,4.1,2,4.1,4.4v10.1h-2.2v-9.8c0-1.7-0.5-3-2.5-3
			c-2,0-4.3,1.5-5.2,2.3v10.4h-2.2v-14.3h2.2L304.8,195.6L304.8,195.6z"/>
		<path class="st0" d="M325,208.2c-4.4,0-6.7-2.8-6.7-7.4s2.4-7.4,6.7-7.4c4.3,0,6.7,2.8,6.7,7.4S329.3,208.2,325,208.2z M325,195.2
			c-3.1,0-4.4,2.2-4.4,5.6s1.3,5.6,4.4,5.6c3.1,0,4.4-2.2,4.4-5.6C329.4,197.4,328.1,195.2,325,195.2z"/>
		<path class="st0" d="M343.9,196.4l-3.5,11.5h-2.2l-4.5-14.3h2.4l3.3,11.9l3.5-11.9h2.1l3.5,11.9l3.3-11.9h2.4l-4.5,14.3h-2.2
			L343.9,196.4z"/>
		<path class="st0" d="M372.6,196.4l-3.5,11.5h-2.2l-4.5-14.3h2.4l3.3,11.9l3.5-11.9h2.1l3.5,11.9l3.3-11.9h2.4l-4.5,14.3H376
			L372.6,196.4z"/>
		<path class="st0" d="M391.6,208.2c-4.4,0-6.7-2.8-6.7-7.4s2.4-7.4,6.7-7.4c4.3,0,6.7,2.8,6.7,7.4S396,208.2,391.6,208.2z
			 M391.6,195.2c-3.1,0-4.4,2.2-4.4,5.6s1.3,5.6,4.4,5.6c3.1,0,4.4-2.2,4.4-5.6C396,197.4,394.7,195.2,391.6,195.2z"/>
		<path class="st0" d="M404.2,196.7c0.2-0.5,1.6-3.5,5.4-3.2v2.1c-4.9,0-5.4,4.5-5.4,4.5v7.8H402v-14.3h2.2V196.7z"/>
		<path class="st0" d="M418.5,199.4l5.7,8.5h-2.4l-4.6-6.9l-2.4,2.9v4h-2.2v-19.8h2.2v13.1l6-7.5h2.6L418.5,199.4z"/>
		<path class="st0" d="M427.8,201.4c0.2,3.1,1.8,5.1,4.1,5.1c1.9,0,4-1.1,5.3-1.9l1,1.5c-1.3,0.8-3.7,2.2-6.5,2.2
			c-3.4,0-6.3-2.5-6.3-7.4c0-4.8,2.8-7.4,6.6-7.4c4,0,6,2.6,6,6.2c0,1.1-0.2,1.9-0.2,1.9L427.8,201.4L427.8,201.4z M427.8,199.9h8.1
			c0.1-3.3-1.4-4.8-3.8-4.8C429.6,195.1,428,196.9,427.8,199.9z"/>
		<path class="st0" d="M444.1,196.7c0.2-0.5,1.6-3.5,5.4-3.2v2.1c-4.9,0-5.4,4.5-5.4,4.5v7.8h-2.2v-14.3h2.2V196.7z"/>
		<path class="st0" d="M462.9,204.2c0,2.7-2.4,4-5.2,4c-2.5,0-5-0.9-6.4-1.7l1-1.7c1.4,0.7,3.6,1.6,5.2,1.6c1.5,0,3-0.7,3-2.1
			c0-1.8-2.4-2.3-4.2-2.8c-2.2-0.6-4.8-1.5-4.8-4.3c0-2.5,2.1-3.9,5-3.9c2.1,0,4.3,0.8,5.6,1.4l-1,1.6c-1.3-0.6-3.1-1.2-4.6-1.2
			c-1.6,0-2.8,0.7-2.8,2c0,1.7,2.4,2.2,3.9,2.6C460.8,200.5,462.9,201.7,462.9,204.2z"/>
		<path class="st0" d="M466,188.9h2.5l0.3,3.4l-2.2,3.5l-0.8-0.9l1.4-2.8H466L466,188.9L466,188.9z"/>
		<path class="st0" d="M489.4,196.9c-0.7-0.4-2.6-1.6-4.3-1.6c-2.3,0-4,2.1-4,5.5c0,3.4,1.7,5.5,4,5.5c1.7,0,3.6-1.2,4.3-1.6l1,1.7
			c-1.1,0.6-3.2,1.9-5.5,1.9c-3.2,0-6.2-2.5-6.2-7.4s3-7.4,6.2-7.4c2.3,0,4.4,1.2,5.5,1.9L489.4,196.9z"/>
		<path class="st0" d="M499.4,208.2c-4.4,0-6.7-2.8-6.7-7.4s2.4-7.4,6.7-7.4c4.3,0,6.7,2.8,6.7,7.4
			C506,205.4,503.7,208.2,499.4,208.2z M499.4,195.2c-3.1,0-4.4,2.2-4.4,5.6s1.3,5.6,4.4,5.6c3.1,0,4.4-2.2,4.4-5.6
			S502.4,195.2,499.4,195.2z"/>
		<path class="st0" d="M512,195.7c1.1-1,3.1-2.4,5.2-2.4c2.5,0,3.4,1.4,3.8,2.7c0.9-0.9,3.1-2.7,5.5-2.7c3,0,3.9,2,3.9,4.4v10.1
			h-2.2v-9.8c0-1.6-0.5-3-2.3-3c-1.8,0-3.7,1.5-4.7,2.5v10.2h-2.2v-9.8c0-1.6-0.5-3-2.4-3c-1.7,0-3.6,1.4-4.6,2.4v10.3h-2.2v-14.3
			h2.2L512,195.7L512,195.7z"/>
		<path class="st0" d="M536.9,195.5c1.1-1,2.8-2.1,5-2.1c3,0,5.4,2.2,5.4,7.4c0,5.2-2.4,7.4-5.4,7.4c-2.2,0-3.9-1.1-5-2.1v7.4h-2.2
			v-19.8h2.2V195.5z M536.9,197.5v6.5c1.1,1.2,2.8,2.3,4.6,2.3c2.4,0,3.6-2.1,3.6-5.5c0-3.5-1.2-5.6-3.6-5.6
			C539.7,195.2,538,196.3,536.9,197.5z"/>
		<path class="st0" d="M550.9,204.6h2.6v3.3h-2.6V204.6z"/>
		<path class="st0" d="M565.5,196.9c0,2.1-1.8,3.2-4.1,3.2c-1.9,0-3.9-0.8-5-1.4l0.9-1.3c1,0.6,2.8,1.2,4.1,1.2
			c1.2,0,2.3-0.5,2.3-1.6c0-1.3-1.7-1.7-3.7-2.3c-1.6-0.5-3.4-1.2-3.4-3.2c0-1.9,1.7-3.1,4-3.1c1.6,0,3.4,0.5,4.5,1.1l-0.8,1.3
			c-1-0.5-2.5-0.9-3.6-0.9c-1.1,0-2.2,0.5-2.2,1.6c0,1.2,1.5,1.5,3.4,2.1C563.4,194,565.5,194.8,565.5,196.9z"/>
		<path class="st0" d="M577.4,191.3l-3.4,6.7H573l-3.4-6.7v8.6h-1.8v-11.4h1.8l3.8,7.6l3.9-7.6h1.8V200h-1.8L577.4,191.3
			L577.4,191.3L577.4,191.3z"/>
	</g>
</g>
</svg>
